<mxfile host="app.diagrams.net" modified="2020-09-02T04:55:17.380Z" agent="5.0 (Windows NT 10.0; Win64; x64) AppleWebKit/537.36 (KHTML, like Gecko) Chrome/84.0.4147.135 Safari/537.36" etag="z3g0nE3oQNK1incdxEcZ" version="13.6.6" type="github">
  <diagram id="XIcyIyrmKRInJXk3R3lh" name="Page-1">
    <mxGraphModel dx="1422" dy="804" grid="0" gridSize="10" guides="1" tooltips="1" connect="1" arrows="1" fold="1" page="1" pageScale="1" pageWidth="827" pageHeight="1169" math="0" shadow="0">
      <root>
        <mxCell id="0" />
        <mxCell id="1" parent="0" />
        <mxCell id="mjgcAsty803WsQ4KzPWa-9" value="" style="shape=ext;rounded=1;html=1;whiteSpace=wrap;dashed=1;dashPattern=1 4;fillColor=#f5f5f5;strokeColor=#666666;fontColor=#333333;" parent="1" vertex="1">
          <mxGeometry x="100" y="240" width="490" height="230" as="geometry" />
        </mxCell>
        <mxCell id="mjgcAsty803WsQ4KzPWa-14" style="rounded=0;orthogonalLoop=1;jettySize=auto;html=1;exitX=0.5;exitY=1;exitDx=0;exitDy=0;entryX=0.5;entryY=0;entryDx=0;entryDy=0;" parent="1" source="mjgcAsty803WsQ4KzPWa-1" target="mjgcAsty803WsQ4KzPWa-10" edge="1">
          <mxGeometry relative="1" as="geometry" />
        </mxCell>
        <mxCell id="mjgcAsty803WsQ4KzPWa-1" value="&lt;font style=&quot;font-size: 17px&quot;&gt;&lt;b&gt;Producer&lt;/b&gt;&lt;/font&gt;" style="ellipse;whiteSpace=wrap;html=1;strokeWidth=2;fillWeight=2;hachureGap=8;fillStyle=dots;sketch=1;fillColor=#FFCCCC;" parent="1" vertex="1">
          <mxGeometry x="100" y="120" width="120" height="60" as="geometry" />
        </mxCell>
        <mxCell id="mjgcAsty803WsQ4KzPWa-15" style="edgeStyle=none;rounded=0;orthogonalLoop=1;jettySize=auto;html=1;exitX=0.5;exitY=1;exitDx=0;exitDy=0;entryX=0.5;entryY=0;entryDx=0;entryDy=0;" parent="1" source="mjgcAsty803WsQ4KzPWa-2" target="mjgcAsty803WsQ4KzPWa-11" edge="1">
          <mxGeometry relative="1" as="geometry" />
        </mxCell>
        <mxCell id="mjgcAsty803WsQ4KzPWa-2" value="&lt;font style=&quot;font-size: 17px&quot;&gt;&lt;b&gt;Producer&lt;/b&gt;&lt;/font&gt;" style="ellipse;whiteSpace=wrap;html=1;strokeWidth=2;fillWeight=2;hachureGap=8;fillStyle=dots;sketch=1;fillColor=#FFCCCC;" parent="1" vertex="1">
          <mxGeometry x="330" y="120" width="120" height="60" as="geometry" />
        </mxCell>
        <mxCell id="mjgcAsty803WsQ4KzPWa-17" style="edgeStyle=none;rounded=0;orthogonalLoop=1;jettySize=auto;html=1;exitX=0.5;exitY=1;exitDx=0;exitDy=0;" parent="1" source="mjgcAsty803WsQ4KzPWa-3" target="mjgcAsty803WsQ4KzPWa-12" edge="1">
          <mxGeometry relative="1" as="geometry" />
        </mxCell>
        <mxCell id="mjgcAsty803WsQ4KzPWa-3" value="&lt;font style=&quot;font-size: 17px&quot;&gt;&lt;b&gt;Producer&lt;/b&gt;&lt;/font&gt;" style="ellipse;whiteSpace=wrap;html=1;strokeWidth=2;fillWeight=2;hachureGap=8;fillStyle=dots;sketch=1;fillColor=#FFCCCC;" parent="1" vertex="1">
          <mxGeometry x="540" y="120" width="120" height="60" as="geometry" />
        </mxCell>
        <mxCell id="mjgcAsty803WsQ4KzPWa-18" style="edgeStyle=none;rounded=0;orthogonalLoop=1;jettySize=auto;html=1;exitX=0.5;exitY=0;exitDx=0;exitDy=0;entryX=0.5;entryY=1;entryDx=0;entryDy=0;" parent="1" source="mjgcAsty803WsQ4KzPWa-4" target="mjgcAsty803WsQ4KzPWa-10" edge="1">
          <mxGeometry relative="1" as="geometry" />
        </mxCell>
        <mxCell id="mjgcAsty803WsQ4KzPWa-4" value="&lt;span style=&quot;font-size: 17px&quot;&gt;&lt;b&gt;Consumer&lt;/b&gt;&lt;/span&gt;" style="ellipse;whiteSpace=wrap;html=1;strokeWidth=2;fillWeight=2;hachureGap=8;fillStyle=dots;sketch=1;fillColor=#E6FFCC;" parent="1" vertex="1">
          <mxGeometry x="90" y="525" width="120" height="60" as="geometry" />
        </mxCell>
        <mxCell id="mjgcAsty803WsQ4KzPWa-19" style="edgeStyle=none;rounded=0;orthogonalLoop=1;jettySize=auto;html=1;exitX=0.5;exitY=0;exitDx=0;exitDy=0;entryX=0.5;entryY=1;entryDx=0;entryDy=0;" parent="1" source="mjgcAsty803WsQ4KzPWa-7" target="mjgcAsty803WsQ4KzPWa-11" edge="1">
          <mxGeometry relative="1" as="geometry" />
        </mxCell>
        <mxCell id="mjgcAsty803WsQ4KzPWa-7" value="&lt;span style=&quot;font-size: 17px&quot;&gt;&lt;b&gt;Consumer&lt;/b&gt;&lt;/span&gt;" style="ellipse;whiteSpace=wrap;html=1;strokeWidth=2;fillWeight=2;hachureGap=8;fillStyle=dots;sketch=1;fillColor=#E6FFCC;" parent="1" vertex="1">
          <mxGeometry x="330" y="525" width="120" height="60" as="geometry" />
        </mxCell>
        <mxCell id="mjgcAsty803WsQ4KzPWa-20" style="edgeStyle=none;rounded=0;orthogonalLoop=1;jettySize=auto;html=1;exitX=0.5;exitY=0;exitDx=0;exitDy=0;entryX=0.5;entryY=1;entryDx=0;entryDy=0;" parent="1" source="mjgcAsty803WsQ4KzPWa-8" target="mjgcAsty803WsQ4KzPWa-12" edge="1">
          <mxGeometry relative="1" as="geometry" />
        </mxCell>
        <mxCell id="mjgcAsty803WsQ4KzPWa-8" value="&lt;span style=&quot;font-size: 17px&quot;&gt;&lt;b&gt;Consumer&lt;/b&gt;&lt;/span&gt;" style="ellipse;whiteSpace=wrap;html=1;strokeWidth=2;fillWeight=2;hachureGap=8;fillStyle=dots;sketch=1;fillColor=#E6FFCC;" parent="1" vertex="1">
          <mxGeometry x="540" y="525" width="120" height="60" as="geometry" />
        </mxCell>
        <mxCell id="mjgcAsty803WsQ4KzPWa-10" value="&lt;font style=&quot;font-size: 18px&quot;&gt;&lt;b&gt;Broker&lt;/b&gt;&lt;/font&gt;" style="shape=datastore;whiteSpace=wrap;html=1;fillColor=#bac8d3;strokeColor=#23445d;" parent="1" vertex="1">
          <mxGeometry x="130" y="310" width="90" height="90" as="geometry" />
        </mxCell>
        <mxCell id="mjgcAsty803WsQ4KzPWa-11" value="&lt;font style=&quot;font-size: 18px&quot;&gt;&lt;b&gt;Broker&lt;/b&gt;&lt;/font&gt;" style="shape=datastore;whiteSpace=wrap;html=1;fillColor=#bac8d3;strokeColor=#23445d;" parent="1" vertex="1">
          <mxGeometry x="300" y="310" width="90" height="90" as="geometry" />
        </mxCell>
        <mxCell id="mjgcAsty803WsQ4KzPWa-12" value="&lt;font style=&quot;font-size: 18px&quot;&gt;&lt;b&gt;Broker&lt;/b&gt;&lt;/font&gt;" style="shape=datastore;whiteSpace=wrap;html=1;fillColor=#bac8d3;strokeColor=#23445d;" parent="1" vertex="1">
          <mxGeometry x="470" y="310" width="90" height="90" as="geometry" />
        </mxCell>
        <mxCell id="mjgcAsty803WsQ4KzPWa-13" value="&lt;font style=&quot;font-size: 18px&quot;&gt;&lt;b&gt;ZooKeeper&lt;/b&gt;&lt;/font&gt;" style="ellipse;shape=cloud;whiteSpace=wrap;html=1;fillColor=#d0cee2;strokeColor=#56517e;" parent="1" vertex="1">
          <mxGeometry x="630" y="310" width="200" height="100" as="geometry" />
        </mxCell>
        <mxCell id="mjgcAsty803WsQ4KzPWa-22" value="" style="endArrow=none;dashed=1;html=1;dashPattern=1 3;strokeWidth=2;entryX=0.4;entryY=0.1;entryDx=0;entryDy=0;entryPerimeter=0;exitX=0.5;exitY=0;exitDx=0;exitDy=0;edgeStyle=orthogonalEdgeStyle;curved=1;" parent="1" source="mjgcAsty803WsQ4KzPWa-10" target="mjgcAsty803WsQ4KzPWa-13" edge="1">
          <mxGeometry width="50" height="50" relative="1" as="geometry">
            <mxPoint x="390" y="430" as="sourcePoint" />
            <mxPoint x="440" y="380" as="targetPoint" />
            <Array as="points">
              <mxPoint x="175" y="280" />
              <mxPoint x="710" y="280" />
            </Array>
          </mxGeometry>
        </mxCell>
        <mxCell id="mjgcAsty803WsQ4KzPWa-25" value="" style="endArrow=none;dashed=1;html=1;dashPattern=1 3;strokeWidth=2;exitX=0.5;exitY=0;exitDx=0;exitDy=0;entryX=0.4;entryY=0.1;entryDx=0;entryDy=0;entryPerimeter=0;edgeStyle=orthogonalEdgeStyle;curved=1;" parent="1" source="mjgcAsty803WsQ4KzPWa-11" target="mjgcAsty803WsQ4KzPWa-13" edge="1">
          <mxGeometry width="50" height="50" relative="1" as="geometry">
            <mxPoint x="470" y="730" as="sourcePoint" />
            <mxPoint x="520" y="680" as="targetPoint" />
            <Array as="points">
              <mxPoint x="345" y="300" />
              <mxPoint x="710" y="300" />
            </Array>
          </mxGeometry>
        </mxCell>
        <mxCell id="mjgcAsty803WsQ4KzPWa-26" value="" style="endArrow=none;dashed=1;html=1;dashPattern=1 3;strokeWidth=2;entryX=0.4;entryY=0.1;entryDx=0;entryDy=0;entryPerimeter=0;exitX=0.5;exitY=0;exitDx=0;exitDy=0;" parent="1" source="mjgcAsty803WsQ4KzPWa-12" target="mjgcAsty803WsQ4KzPWa-13" edge="1">
          <mxGeometry width="50" height="50" relative="1" as="geometry">
            <mxPoint x="380" y="770" as="sourcePoint" />
            <mxPoint x="430" y="720" as="targetPoint" />
            <Array as="points">
              <mxPoint x="610" y="300" />
              <mxPoint x="670" y="300" />
            </Array>
          </mxGeometry>
        </mxCell>
        <mxCell id="mjgcAsty803WsQ4KzPWa-27" value="&lt;font size=&quot;1&quot;&gt;&lt;b style=&quot;font-size: 18px&quot;&gt;send&lt;/b&gt;&lt;/font&gt;" style="text;html=1;align=center;verticalAlign=middle;resizable=0;points=[];autosize=1;" parent="1" vertex="1">
          <mxGeometry x="160" y="210" width="60" height="20" as="geometry" />
        </mxCell>
        <mxCell id="mjgcAsty803WsQ4KzPWa-29" value="&lt;font size=&quot;1&quot;&gt;&lt;b style=&quot;font-size: 18px&quot;&gt;send&lt;/b&gt;&lt;/font&gt;" style="text;html=1;align=center;verticalAlign=middle;resizable=0;points=[];autosize=1;" parent="1" vertex="1">
          <mxGeometry x="384" y="210" width="60" height="20" as="geometry" />
        </mxCell>
        <mxCell id="mjgcAsty803WsQ4KzPWa-30" value="&lt;font size=&quot;1&quot;&gt;&lt;b style=&quot;font-size: 18px&quot;&gt;send&lt;/b&gt;&lt;/font&gt;" style="text;html=1;align=center;verticalAlign=middle;resizable=0;points=[];autosize=1;" parent="1" vertex="1">
          <mxGeometry x="590" y="210" width="60" height="20" as="geometry" />
        </mxCell>
        <mxCell id="mjgcAsty803WsQ4KzPWa-31" value="&lt;font style=&quot;font-size: 18px&quot;&gt;&lt;b&gt;pull&lt;/b&gt;&lt;/font&gt;" style="text;html=1;align=center;verticalAlign=middle;resizable=0;points=[];autosize=1;" parent="1" vertex="1">
          <mxGeometry x="160" y="480" width="50" height="20" as="geometry" />
        </mxCell>
        <mxCell id="mjgcAsty803WsQ4KzPWa-32" value="&lt;font style=&quot;font-size: 18px&quot;&gt;&lt;b&gt;pull&lt;/b&gt;&lt;/font&gt;" style="text;html=1;align=center;verticalAlign=middle;resizable=0;points=[];autosize=1;" parent="1" vertex="1">
          <mxGeometry x="394" y="480" width="50" height="20" as="geometry" />
        </mxCell>
        <mxCell id="mjgcAsty803WsQ4KzPWa-33" value="&lt;font style=&quot;font-size: 18px&quot;&gt;&lt;b&gt;pull&lt;/b&gt;&lt;/font&gt;" style="text;html=1;align=center;verticalAlign=middle;resizable=0;points=[];autosize=1;" parent="1" vertex="1">
          <mxGeometry x="590" y="480" width="50" height="20" as="geometry" />
        </mxCell>
        <mxCell id="mjgcAsty803WsQ4KzPWa-36" value="" style="verticalLabelPosition=bottom;verticalAlign=top;html=1;shape=mxgraph.basic.rect;fillColor2=none;strokeWidth=1;size=20;indent=5;fillColor=#bac8d3;strokeColor=#23445d;" parent="1" vertex="1">
          <mxGeometry x="328" y="717" width="29" height="92" as="geometry" />
        </mxCell>
        <mxCell id="mjgcAsty803WsQ4KzPWa-37" value="" style="verticalLabelPosition=bottom;verticalAlign=top;html=1;shape=mxgraph.basic.rect;fillColor2=none;strokeWidth=1;size=20;indent=5;fillColor=#bac8d3;strokeColor=#23445d;" parent="1" vertex="1">
          <mxGeometry x="299" y="717" width="29" height="92" as="geometry" />
        </mxCell>
        <mxCell id="mjgcAsty803WsQ4KzPWa-38" value="" style="verticalLabelPosition=bottom;verticalAlign=top;html=1;shape=mxgraph.basic.rect;fillColor2=none;strokeWidth=1;size=20;indent=5;" parent="1" vertex="1">
          <mxGeometry x="386" y="717" width="29" height="92" as="geometry" />
        </mxCell>
        <mxCell id="mjgcAsty803WsQ4KzPWa-39" value="" style="verticalLabelPosition=bottom;verticalAlign=top;html=1;shape=mxgraph.basic.rect;fillColor2=none;strokeWidth=1;size=20;indent=5;fillColor=#bac8d3;strokeColor=#23445d;" parent="1" vertex="1">
          <mxGeometry x="357" y="717" width="29" height="92" as="geometry" />
        </mxCell>
        <mxCell id="mjgcAsty803WsQ4KzPWa-40" value="" style="verticalLabelPosition=bottom;verticalAlign=top;html=1;shape=mxgraph.basic.rect;fillColor2=none;strokeWidth=1;size=20;indent=5;fillColor=#bac8d3;strokeColor=#23445d;" parent="1" vertex="1">
          <mxGeometry x="212" y="717" width="29" height="92" as="geometry" />
        </mxCell>
        <mxCell id="mjgcAsty803WsQ4KzPWa-41" value="" style="verticalLabelPosition=bottom;verticalAlign=top;html=1;shape=mxgraph.basic.rect;fillColor2=none;strokeWidth=1;size=20;indent=5;fillColor=#bac8d3;strokeColor=#23445d;" parent="1" vertex="1">
          <mxGeometry x="183" y="717" width="29" height="92" as="geometry" />
        </mxCell>
        <mxCell id="mjgcAsty803WsQ4KzPWa-42" value="" style="verticalLabelPosition=bottom;verticalAlign=top;html=1;shape=mxgraph.basic.rect;fillColor2=none;strokeWidth=1;size=20;indent=5;fillColor=#bac8d3;strokeColor=#23445d;" parent="1" vertex="1">
          <mxGeometry x="270" y="717" width="29" height="92" as="geometry" />
        </mxCell>
        <mxCell id="mjgcAsty803WsQ4KzPWa-43" value="" style="verticalLabelPosition=bottom;verticalAlign=top;html=1;shape=mxgraph.basic.rect;fillColor2=none;strokeWidth=1;size=20;indent=5;fillColor=#bac8d3;strokeColor=#23445d;" parent="1" vertex="1">
          <mxGeometry x="241" y="717" width="29" height="92" as="geometry" />
        </mxCell>
        <mxCell id="mjgcAsty803WsQ4KzPWa-44" value="" style="verticalLabelPosition=bottom;verticalAlign=top;html=1;shape=mxgraph.basic.rect;fillColor2=none;strokeWidth=1;size=20;indent=5;" parent="1" vertex="1">
          <mxGeometry x="444" y="717" width="29" height="92" as="geometry" />
        </mxCell>
        <mxCell id="mjgcAsty803WsQ4KzPWa-45" value="" style="verticalLabelPosition=bottom;verticalAlign=top;html=1;shape=mxgraph.basic.rect;fillColor2=none;strokeWidth=1;size=20;indent=5;" parent="1" vertex="1">
          <mxGeometry x="415" y="717" width="29" height="92" as="geometry" />
        </mxCell>
        <mxCell id="mjgcAsty803WsQ4KzPWa-48" value="&lt;font size=&quot;1&quot;&gt;&lt;b style=&quot;font-size: 16px&quot;&gt;0&lt;/b&gt;&lt;/font&gt;" style="text;html=1;align=center;verticalAlign=middle;resizable=0;points=[];autosize=1;" parent="1" vertex="1">
          <mxGeometry x="188" y="758" width="19" height="19" as="geometry" />
        </mxCell>
        <mxCell id="mjgcAsty803WsQ4KzPWa-49" value="&lt;font size=&quot;1&quot;&gt;&lt;b style=&quot;font-size: 16px&quot;&gt;1&lt;/b&gt;&lt;/font&gt;" style="text;html=1;align=center;verticalAlign=middle;resizable=0;points=[];autosize=1;" parent="1" vertex="1">
          <mxGeometry x="217" y="758" width="19" height="19" as="geometry" />
        </mxCell>
        <mxCell id="mjgcAsty803WsQ4KzPWa-50" value="&lt;font size=&quot;1&quot;&gt;&lt;b style=&quot;font-size: 16px&quot;&gt;2&lt;/b&gt;&lt;/font&gt;" style="text;html=1;align=center;verticalAlign=middle;resizable=0;points=[];autosize=1;" parent="1" vertex="1">
          <mxGeometry x="246" y="758" width="19" height="19" as="geometry" />
        </mxCell>
        <mxCell id="mjgcAsty803WsQ4KzPWa-51" value="&lt;font size=&quot;1&quot;&gt;&lt;b style=&quot;font-size: 16px&quot;&gt;3&lt;/b&gt;&lt;/font&gt;" style="text;html=1;align=center;verticalAlign=middle;resizable=0;points=[];autosize=1;" parent="1" vertex="1">
          <mxGeometry x="275" y="758" width="19" height="19" as="geometry" />
        </mxCell>
        <mxCell id="mjgcAsty803WsQ4KzPWa-52" value="&lt;font size=&quot;1&quot;&gt;&lt;b style=&quot;font-size: 16px&quot;&gt;4&lt;/b&gt;&lt;/font&gt;" style="text;html=1;align=center;verticalAlign=middle;resizable=0;points=[];autosize=1;" parent="1" vertex="1">
          <mxGeometry x="304" y="758" width="19" height="19" as="geometry" />
        </mxCell>
        <mxCell id="mjgcAsty803WsQ4KzPWa-53" value="&lt;font size=&quot;1&quot;&gt;&lt;b style=&quot;font-size: 16px&quot;&gt;5&lt;/b&gt;&lt;/font&gt;" style="text;html=1;align=center;verticalAlign=middle;resizable=0;points=[];autosize=1;" parent="1" vertex="1">
          <mxGeometry x="333" y="758" width="19" height="19" as="geometry" />
        </mxCell>
        <mxCell id="mjgcAsty803WsQ4KzPWa-54" value="&lt;font size=&quot;1&quot;&gt;&lt;b style=&quot;font-size: 16px&quot;&gt;6&lt;/b&gt;&lt;/font&gt;" style="text;html=1;align=center;verticalAlign=middle;resizable=0;points=[];autosize=1;" parent="1" vertex="1">
          <mxGeometry x="362" y="758" width="19" height="19" as="geometry" />
        </mxCell>
        <mxCell id="mjgcAsty803WsQ4KzPWa-55" value="&lt;font size=&quot;1&quot;&gt;&lt;b style=&quot;font-size: 16px&quot;&gt;7&lt;/b&gt;&lt;/font&gt;" style="text;html=1;align=center;verticalAlign=middle;resizable=0;points=[];autosize=1;" parent="1" vertex="1">
          <mxGeometry x="391" y="758" width="19" height="19" as="geometry" />
        </mxCell>
        <mxCell id="mjgcAsty803WsQ4KzPWa-56" value="&lt;font size=&quot;1&quot;&gt;&lt;b style=&quot;font-size: 16px&quot;&gt;8&lt;/b&gt;&lt;/font&gt;" style="text;html=1;align=center;verticalAlign=middle;resizable=0;points=[];autosize=1;" parent="1" vertex="1">
          <mxGeometry x="420" y="758" width="19" height="19" as="geometry" />
        </mxCell>
        <mxCell id="mjgcAsty803WsQ4KzPWa-57" value="&lt;font size=&quot;1&quot;&gt;&lt;b style=&quot;font-size: 16px&quot;&gt;9&lt;/b&gt;&lt;/font&gt;" style="text;html=1;align=center;verticalAlign=middle;resizable=0;points=[];autosize=1;" parent="1" vertex="1">
          <mxGeometry x="449" y="758" width="19" height="19" as="geometry" />
        </mxCell>
        <mxCell id="mjgcAsty803WsQ4KzPWa-60" value="" style="rounded=0;orthogonalLoop=1;jettySize=auto;html=1;entryX=0.477;entryY=-0.002;entryDx=0;entryDy=0;entryPerimeter=0;" parent="1" source="mjgcAsty803WsQ4KzPWa-59" target="mjgcAsty803WsQ4KzPWa-41" edge="1">
          <mxGeometry relative="1" as="geometry" />
        </mxCell>
        <mxCell id="mjgcAsty803WsQ4KzPWa-59" value="&lt;font style=&quot;font-size: 17px&quot;&gt;&lt;b&gt;Start&lt;/b&gt;&lt;/font&gt;" style="text;html=1;align=center;verticalAlign=middle;resizable=0;points=[];autosize=1;" parent="1" vertex="1">
          <mxGeometry x="173" y="660" width="49" height="19" as="geometry" />
        </mxCell>
        <mxCell id="mjgcAsty803WsQ4KzPWa-61" value="" style="rounded=0;orthogonalLoop=1;jettySize=auto;html=1;entryX=0.477;entryY=-0.002;entryDx=0;entryDy=0;entryPerimeter=0;" parent="1" source="mjgcAsty803WsQ4KzPWa-62" edge="1">
          <mxGeometry relative="1" as="geometry">
            <mxPoint x="399.83299999999997" y="716.816" as="targetPoint" />
          </mxGeometry>
        </mxCell>
        <mxCell id="mjgcAsty803WsQ4KzPWa-62" value="&lt;span style=&quot;font-size: 17px&quot;&gt;&lt;b&gt;HW&lt;/b&gt;&lt;/span&gt;" style="text;html=1;align=center;verticalAlign=middle;resizable=0;points=[];autosize=1;" parent="1" vertex="1">
          <mxGeometry x="381" y="660" width="38" height="19" as="geometry" />
        </mxCell>
        <mxCell id="mjgcAsty803WsQ4KzPWa-63" value="" style="rounded=0;orthogonalLoop=1;jettySize=auto;html=1;entryX=0.477;entryY=-0.002;entryDx=0;entryDy=0;entryPerimeter=0;" parent="1" source="mjgcAsty803WsQ4KzPWa-64" edge="1">
          <mxGeometry relative="1" as="geometry">
            <mxPoint x="457.83299999999997" y="716.996" as="targetPoint" />
          </mxGeometry>
        </mxCell>
        <mxCell id="mjgcAsty803WsQ4KzPWa-64" value="&lt;span style=&quot;font-size: 17px&quot;&gt;&lt;b&gt;LEO&lt;/b&gt;&lt;/span&gt;" style="text;html=1;align=center;verticalAlign=middle;resizable=0;points=[];autosize=1;" parent="1" vertex="1">
          <mxGeometry x="436" y="660.18" width="45" height="19" as="geometry" />
        </mxCell>
        <mxCell id="mjgcAsty803WsQ4KzPWa-65" value="" style="shape=filledEdge;rounded=0;fixDash=1;endArrow=none;strokeWidth=10;fillColor=#ffffff;edgeStyle=orthogonalEdgeStyle;" parent="1" edge="1">
          <mxGeometry width="60" height="40" relative="1" as="geometry">
            <mxPoint x="279" y="849" as="sourcePoint" />
            <mxPoint x="372.5" y="809" as="targetPoint" />
          </mxGeometry>
        </mxCell>
        <mxCell id="mjgcAsty803WsQ4KzPWa-66" value="" style="shape=filledEdge;rounded=0;fixDash=1;endArrow=none;strokeWidth=10;fillColor=#ffffff;edgeStyle=orthogonalEdgeStyle;" parent="1" edge="1">
          <mxGeometry width="60" height="40" relative="1" as="geometry">
            <mxPoint x="284" y="849" as="sourcePoint" />
            <mxPoint x="199" y="809" as="targetPoint" />
          </mxGeometry>
        </mxCell>
        <mxCell id="mjgcAsty803WsQ4KzPWa-68" value="" style="shape=filledEdge;rounded=0;fixDash=1;endArrow=none;strokeWidth=10;fillColor=#ffffff;edgeStyle=orthogonalEdgeStyle;" parent="1" edge="1">
          <mxGeometry width="60" height="40" relative="1" as="geometry">
            <mxPoint x="282" y="892" as="sourcePoint" />
            <mxPoint x="282" y="852" as="targetPoint" />
          </mxGeometry>
        </mxCell>
        <mxCell id="mjgcAsty803WsQ4KzPWa-69" value="&lt;font style=&quot;font-size: 16px&quot;&gt;&lt;b&gt;Consumer&lt;br&gt;&amp;nbsp;可消费的消息区间&lt;/b&gt;&lt;/font&gt;" style="text;html=1;align=center;verticalAlign=middle;resizable=0;points=[];autosize=1;" parent="1" vertex="1">
          <mxGeometry x="213.5" y="891" width="142" height="34" as="geometry" />
        </mxCell>
        <mxCell id="mjgcAsty803WsQ4KzPWa-71" style="edgeStyle=none;rounded=0;orthogonalLoop=1;jettySize=auto;html=1;entryX=0.557;entryY=1.004;entryDx=0;entryDy=0;entryPerimeter=0;" parent="1" source="mjgcAsty803WsQ4KzPWa-70" target="mjgcAsty803WsQ4KzPWa-44" edge="1">
          <mxGeometry relative="1" as="geometry">
            <Array as="points">
              <mxPoint x="460" y="809" />
            </Array>
          </mxGeometry>
        </mxCell>
        <mxCell id="mjgcAsty803WsQ4KzPWa-70" value="&lt;font style=&quot;font-size: 16px&quot;&gt;&lt;b&gt;当前将要写入&lt;br&gt;最新的消息&lt;/b&gt;&lt;/font&gt;" style="text;html=1;align=center;verticalAlign=middle;resizable=0;points=[];autosize=1;" parent="1" vertex="1">
          <mxGeometry x="405.5" y="857" width="106" height="34" as="geometry" />
        </mxCell>
        <mxCell id="vrb_dBbtrKITQIbtx9v6-2" value="" style="shape=ext;rounded=1;html=1;whiteSpace=wrap;dashed=1;dashPattern=1 4;fillColor=#f5f5f5;strokeColor=#666666;fontColor=#333333;fontSize=16;fontStyle=1" vertex="1" parent="1">
          <mxGeometry x="111.75" y="1485" width="281.5" height="98" as="geometry" />
        </mxCell>
        <mxCell id="vrb_dBbtrKITQIbtx9v6-4" value="" style="shape=ext;rounded=1;html=1;whiteSpace=wrap;dashed=1;dashPattern=1 4;fillColor=#f5f5f5;strokeColor=#666666;fontColor=#333333;fontSize=16;fontStyle=1" vertex="1" parent="1">
          <mxGeometry x="497.25" y="1485" width="191" height="97" as="geometry" />
        </mxCell>
        <mxCell id="vrb_dBbtrKITQIbtx9v6-5" value="C1" style="rounded=1;whiteSpace=wrap;html=1;fontSize=16;fontStyle=1" vertex="1" parent="1">
          <mxGeometry x="146.5" y="1513" width="49" height="42" as="geometry" />
        </mxCell>
        <mxCell id="vrb_dBbtrKITQIbtx9v6-7" value="C2" style="rounded=1;whiteSpace=wrap;html=1;fontSize=16;fontStyle=1" vertex="1" parent="1">
          <mxGeometry x="226.5" y="1513" width="49" height="42" as="geometry" />
        </mxCell>
        <mxCell id="vrb_dBbtrKITQIbtx9v6-8" value="C3" style="rounded=1;whiteSpace=wrap;html=1;fontSize=16;fontStyle=1" vertex="1" parent="1">
          <mxGeometry x="309.5" y="1513" width="49" height="42" as="geometry" />
        </mxCell>
        <mxCell id="vrb_dBbtrKITQIbtx9v6-9" value="C1" style="rounded=1;whiteSpace=wrap;html=1;fontSize=16;fontStyle=1" vertex="1" parent="1">
          <mxGeometry x="524.25" y="1513" width="49" height="42" as="geometry" />
        </mxCell>
        <mxCell id="vrb_dBbtrKITQIbtx9v6-10" value="C2" style="rounded=1;whiteSpace=wrap;html=1;fontSize=16;fontStyle=1" vertex="1" parent="1">
          <mxGeometry x="610.75" y="1513" width="49" height="42" as="geometry" />
        </mxCell>
        <mxCell id="vrb_dBbtrKITQIbtx9v6-11" value="&lt;font style=&quot;font-size: 18px&quot;&gt;&lt;b&gt;Consumer GroupA&lt;/b&gt;&lt;/font&gt;" style="text;html=1;align=center;verticalAlign=middle;resizable=0;points=[];autosize=1;" vertex="1" parent="1">
          <mxGeometry x="167" y="1608" width="171" height="20" as="geometry" />
        </mxCell>
        <mxCell id="vrb_dBbtrKITQIbtx9v6-13" value="&lt;font style=&quot;font-size: 18px&quot;&gt;&lt;b&gt;Consumer GroupB&lt;/b&gt;&lt;/font&gt;" style="text;html=1;align=center;verticalAlign=middle;resizable=0;points=[];autosize=1;" vertex="1" parent="1">
          <mxGeometry x="507.25" y="1608" width="171" height="20" as="geometry" />
        </mxCell>
        <mxCell id="vrb_dBbtrKITQIbtx9v6-14" value="" style="shape=ext;rounded=1;html=1;whiteSpace=wrap;dashed=1;dashPattern=1 4;fillColor=#f5f5f5;strokeColor=#666666;fontColor=#333333;fontSize=16;fontStyle=1" vertex="1" parent="1">
          <mxGeometry x="227.63" y="1313" width="409.25" height="101" as="geometry" />
        </mxCell>
        <mxCell id="vrb_dBbtrKITQIbtx9v6-22" style="rounded=0;orthogonalLoop=1;jettySize=auto;html=1;exitX=0.5;exitY=1;exitDx=0;exitDy=0;fontSize=16;" edge="1" parent="1" source="vrb_dBbtrKITQIbtx9v6-15" target="vrb_dBbtrKITQIbtx9v6-5">
          <mxGeometry relative="1" as="geometry" />
        </mxCell>
        <mxCell id="vrb_dBbtrKITQIbtx9v6-23" style="edgeStyle=none;rounded=0;orthogonalLoop=1;jettySize=auto;html=1;exitX=0.5;exitY=1;exitDx=0;exitDy=0;entryX=0.5;entryY=0;entryDx=0;entryDy=0;fontSize=16;" edge="1" parent="1" source="vrb_dBbtrKITQIbtx9v6-15" target="vrb_dBbtrKITQIbtx9v6-9">
          <mxGeometry relative="1" as="geometry" />
        </mxCell>
        <mxCell id="vrb_dBbtrKITQIbtx9v6-15" value="P1" style="rounded=1;whiteSpace=wrap;html=1;fontSize=16;fontStyle=1" vertex="1" parent="1">
          <mxGeometry x="244.88" y="1341" width="49" height="42" as="geometry" />
        </mxCell>
        <mxCell id="vrb_dBbtrKITQIbtx9v6-24" style="edgeStyle=none;rounded=0;orthogonalLoop=1;jettySize=auto;html=1;exitX=0.5;exitY=1;exitDx=0;exitDy=0;entryX=0.5;entryY=0;entryDx=0;entryDy=0;fontSize=16;" edge="1" parent="1" source="vrb_dBbtrKITQIbtx9v6-16" target="vrb_dBbtrKITQIbtx9v6-7">
          <mxGeometry relative="1" as="geometry" />
        </mxCell>
        <mxCell id="vrb_dBbtrKITQIbtx9v6-26" style="edgeStyle=none;rounded=0;orthogonalLoop=1;jettySize=auto;html=1;exitX=0.5;exitY=1;exitDx=0;exitDy=0;entryX=0.5;entryY=0;entryDx=0;entryDy=0;fontSize=16;" edge="1" parent="1" source="vrb_dBbtrKITQIbtx9v6-16" target="vrb_dBbtrKITQIbtx9v6-9">
          <mxGeometry relative="1" as="geometry" />
        </mxCell>
        <mxCell id="vrb_dBbtrKITQIbtx9v6-16" value="P2" style="rounded=1;whiteSpace=wrap;html=1;fontSize=16;fontStyle=1" vertex="1" parent="1">
          <mxGeometry x="324.88" y="1341" width="49" height="42" as="geometry" />
        </mxCell>
        <mxCell id="vrb_dBbtrKITQIbtx9v6-25" style="edgeStyle=none;rounded=0;orthogonalLoop=1;jettySize=auto;html=1;exitX=0.5;exitY=1;exitDx=0;exitDy=0;entryX=0.5;entryY=0;entryDx=0;entryDy=0;fontSize=16;" edge="1" parent="1" source="vrb_dBbtrKITQIbtx9v6-17" target="vrb_dBbtrKITQIbtx9v6-8">
          <mxGeometry relative="1" as="geometry" />
        </mxCell>
        <mxCell id="vrb_dBbtrKITQIbtx9v6-27" style="edgeStyle=none;rounded=0;orthogonalLoop=1;jettySize=auto;html=1;exitX=0.5;exitY=1;exitDx=0;exitDy=0;fontSize=16;" edge="1" parent="1" source="vrb_dBbtrKITQIbtx9v6-17">
          <mxGeometry relative="1" as="geometry">
            <mxPoint x="551.75" y="1515" as="targetPoint" />
          </mxGeometry>
        </mxCell>
        <mxCell id="vrb_dBbtrKITQIbtx9v6-17" value="P3" style="rounded=1;whiteSpace=wrap;html=1;fontSize=16;fontStyle=1" vertex="1" parent="1">
          <mxGeometry x="407.88" y="1341" width="49" height="42" as="geometry" />
        </mxCell>
        <mxCell id="vrb_dBbtrKITQIbtx9v6-28" style="edgeStyle=none;rounded=0;orthogonalLoop=1;jettySize=auto;html=1;exitX=0.5;exitY=1;exitDx=0;exitDy=0;entryX=0.5;entryY=0;entryDx=0;entryDy=0;fontSize=16;" edge="1" parent="1" source="vrb_dBbtrKITQIbtx9v6-19" target="vrb_dBbtrKITQIbtx9v6-7">
          <mxGeometry relative="1" as="geometry" />
        </mxCell>
        <mxCell id="vrb_dBbtrKITQIbtx9v6-29" style="edgeStyle=none;rounded=0;orthogonalLoop=1;jettySize=auto;html=1;exitX=0.5;exitY=1;exitDx=0;exitDy=0;entryX=0.5;entryY=0;entryDx=0;entryDy=0;fontSize=16;" edge="1" parent="1" source="vrb_dBbtrKITQIbtx9v6-19" target="vrb_dBbtrKITQIbtx9v6-10">
          <mxGeometry relative="1" as="geometry" />
        </mxCell>
        <mxCell id="vrb_dBbtrKITQIbtx9v6-19" value="P4" style="rounded=1;whiteSpace=wrap;html=1;fontSize=16;fontStyle=1" vertex="1" parent="1">
          <mxGeometry x="490.88" y="1341" width="49" height="42" as="geometry" />
        </mxCell>
        <mxCell id="vrb_dBbtrKITQIbtx9v6-30" style="edgeStyle=none;rounded=0;orthogonalLoop=1;jettySize=auto;html=1;exitX=0.5;exitY=1;exitDx=0;exitDy=0;fontSize=16;" edge="1" parent="1" source="vrb_dBbtrKITQIbtx9v6-20">
          <mxGeometry relative="1" as="geometry">
            <mxPoint x="632.75" y="1509" as="targetPoint" />
          </mxGeometry>
        </mxCell>
        <mxCell id="vrb_dBbtrKITQIbtx9v6-31" style="edgeStyle=none;rounded=0;orthogonalLoop=1;jettySize=auto;html=1;exitX=0.5;exitY=1;exitDx=0;exitDy=0;entryX=0.5;entryY=0;entryDx=0;entryDy=0;fontSize=16;" edge="1" parent="1" source="vrb_dBbtrKITQIbtx9v6-20" target="vrb_dBbtrKITQIbtx9v6-8">
          <mxGeometry relative="1" as="geometry" />
        </mxCell>
        <mxCell id="vrb_dBbtrKITQIbtx9v6-20" value="P5" style="rounded=1;whiteSpace=wrap;html=1;fontSize=16;fontStyle=1" vertex="1" parent="1">
          <mxGeometry x="570.88" y="1341" width="49" height="42" as="geometry" />
        </mxCell>
        <mxCell id="vrb_dBbtrKITQIbtx9v6-32" value="&lt;span style=&quot;font-size: 18px&quot;&gt;&lt;b&gt;Topic&lt;/b&gt;&lt;/span&gt;" style="text;html=1;align=center;verticalAlign=middle;resizable=0;points=[];autosize=1;" vertex="1" parent="1">
          <mxGeometry x="403.88" y="1282" width="57" height="20" as="geometry" />
        </mxCell>
      </root>
    </mxGraphModel>
  </diagram>
</mxfile>
